<svg width="17" height="17" viewBox="0 0 17 17" fill="none" xmlns="http://www.w3.org/2000/svg">
<path d="M8.5 0C9.61624 0 10.7215 0.219859 11.7528 0.647024C12.7841 1.07419 13.7211 1.70029 14.5104 2.48959C15.2997 3.27889 15.9258 4.21592 16.353 5.24719C16.7801 6.27846 17 7.38376 17 8.5C17 10.7543 16.1045 12.9163 14.5104 14.5104C12.9163 16.1045 10.7543 17 8.5 17C7.38376 17 6.27846 16.7801 5.24719 16.353C4.21592 15.9258 3.27889 15.2997 2.48959 14.5104C0.895533 12.9163 0 10.7543 0 8.5C0 6.24566 0.895533 4.08365 2.48959 2.48959C4.08365 0.895533 6.24566 0 8.5 0ZM7.65 4.25C7.19913 4.25 6.76673 4.42911 6.44792 4.74792C6.12911 5.06673 5.95 5.49913 5.95 5.95V11.05C5.95 11.5009 6.12911 11.9333 6.44792 12.2521C6.76673 12.5709 7.19913 12.75 7.65 12.75H9.35C9.80087 12.75 10.2333 12.5709 10.5521 12.2521C10.8709 11.9333 11.05 11.5009 11.05 11.05V10.2H9.35V11.05H7.65V5.95H9.35V6.8H11.05V5.95C11.05 5.49913 10.8709 5.06673 10.5521 4.74792C10.2333 4.42911 9.80087 4.25 9.35 4.25H7.65Z" fill="#3E1515"/>
</svg>
