<svg width="39" height="22" viewBox="0 0 39 22" fill="none" xmlns="http://www.w3.org/2000/svg">
<path d="M16.7532 12.3628L16.5256 4.09584C16.5256 3.83882 16.3133 3.64233 16.0704 3.64233C15.8125 3.64233 15.6152 3.83882 15.6152 4.09584L15.4027 12.3628L15.6152 16.3375C15.6152 16.5946 15.8276 16.7911 16.0704 16.7911C16.3283 16.7911 16.5256 16.5946 16.5256 16.3375L16.7532 12.3628Z" fill="url(#paint0_linear_207_66)"/>
<path d="M15.1143 12.3628L14.8564 3.77823C14.8565 3.72265 14.8455 3.66759 14.8242 3.61623C14.8029 3.56486 14.7716 3.51819 14.7321 3.47889C14.6926 3.43959 14.6458 3.40844 14.5942 3.38722C14.5426 3.366 14.4873 3.35513 14.4315 3.35523C14.3757 3.35511 14.3204 3.36597 14.2687 3.38719C14.2171 3.40841 14.1702 3.43957 14.1307 3.47889C14.0913 3.51821 14.06 3.5649 14.0386 3.6163C14.0173 3.66769 14.0064 3.72277 14.0065 3.77838L13.779 12.3478L14.0066 16.3527C14.0065 16.4083 14.0174 16.4634 14.0387 16.5148C14.06 16.5662 14.0913 16.6129 14.1308 16.6522C14.1703 16.6915 14.2172 16.7227 14.2688 16.744C14.3204 16.7652 14.3757 16.7761 14.4315 16.776C14.4874 16.7761 14.5427 16.7652 14.5943 16.744C14.6459 16.7228 14.6928 16.6916 14.7323 16.6523C14.7718 16.6129 14.8031 16.5662 14.8244 16.5148C14.8458 16.4634 14.8567 16.4083 14.8565 16.3527L15.1143 12.3628Z" fill="url(#paint1_linear_207_66)"/>
<path d="M11.5786 3.8387C11.5634 3.64221 11.4116 3.47607 11.2145 3.47607C11.0172 3.47607 10.8653 3.62719 10.8502 3.8387L10.5922 12.3475L10.8502 16.413C10.8502 16.6095 11.0172 16.7606 11.2143 16.7606C11.4116 16.7606 11.5635 16.6095 11.5786 16.398L11.8821 12.3324L11.5786 3.8387Z" fill="url(#paint2_linear_207_66)"/>
<path d="M13.2175 3.55167C13.2175 3.34001 13.0354 3.1587 12.8229 3.1587C12.771 3.15834 12.7195 3.16825 12.6715 3.18787C12.6235 3.20749 12.5798 3.23643 12.5431 3.27299C12.5064 3.30955 12.4773 3.35302 12.4576 3.40086C12.4379 3.4487 12.428 3.49996 12.4284 3.55167L12.1857 12.3476L12.4284 16.3828C12.4284 16.5945 12.6106 16.7758 12.8229 16.7758C13.0354 16.7758 13.2023 16.6095 13.2175 16.3828L13.4906 12.3476L13.2175 3.55167Z" fill="url(#paint3_linear_207_66)"/>
<path d="M4.94704 16.6699C5.06846 16.6699 5.15956 16.5793 5.17464 16.4434L5.56922 12.3476L5.17464 8.11599C5.15941 7.99491 5.06846 7.88916 4.94704 7.88916C4.82563 7.88916 4.73468 7.97989 4.71944 8.11584L4.37042 12.3476L4.71944 16.4434C4.71944 16.5793 4.82563 16.6699 4.94704 16.6699Z" fill="url(#paint4_linear_207_66)"/>
<path d="M18.4074 12.3628L18.1949 2.53915C18.1949 2.37286 18.1039 2.22175 17.9673 2.13101C17.8914 2.08565 17.8005 2.04028 17.6941 2.04028C17.6032 2.04028 17.5121 2.07063 17.421 2.11599C17.2845 2.20657 17.1934 2.35769 17.1934 2.52398V2.61471L17.0113 12.3478L17.1934 16.2923V16.3075C17.1934 16.4131 17.2389 16.519 17.3148 16.5946C17.4059 16.7003 17.5424 16.7759 17.6941 16.7759C17.8308 16.7759 17.9522 16.7155 18.0431 16.6399C18.1342 16.5492 18.1949 16.4283 18.1949 16.2923L18.2101 15.8994L18.4074 12.3628Z" fill="url(#paint5_linear_207_66)"/>
<path d="M6.75293 8.418C6.7377 8.26688 6.63152 8.16113 6.49486 8.16113C6.35836 8.16113 6.23695 8.26688 6.23695 8.418L5.91824 12.3477L6.23695 16.4735C6.25218 16.6246 6.35836 16.7304 6.49486 16.7304C6.63152 16.7304 6.75293 16.6246 6.75293 16.4735L7.11704 12.3475L6.75293 8.418Z" fill="url(#paint6_linear_207_66)"/>
<path d="M8.05792 5.66748C7.90619 5.66748 7.76969 5.7884 7.76969 5.95469L7.46622 12.3476L7.76953 16.4736C7.78477 16.6399 7.90603 16.7606 8.05777 16.7606C8.2095 16.7606 8.34615 16.6399 8.34615 16.4736L8.69517 12.3476L8.34615 5.95469C8.34615 5.80358 8.2095 5.66748 8.05777 5.66748H8.05792Z" fill="url(#paint7_linear_207_66)"/>
<path d="M9.93966 16.4735L10.2584 12.3627L9.93966 4.50369C9.92443 4.32238 9.78793 4.18628 9.60588 4.18628C9.42367 4.18628 9.28717 4.32238 9.27194 4.50369L8.9837 12.3627L9.27194 16.4735C9.27194 16.6548 9.42367 16.7909 9.60588 16.7909C9.78793 16.8061 9.92458 16.6548 9.93966 16.4735Z" fill="url(#paint8_linear_207_66)"/>
<path d="M19.6062 1.19412C19.5239 1.14437 19.4293 1.11817 19.333 1.11841C19.2111 1.1193 19.0932 1.162 18.9993 1.23933C18.8778 1.33007 18.802 1.48118 18.802 1.64747V1.70786L18.5894 12.3779L18.6958 14.3427L18.802 16.262C18.802 16.5492 19.0448 16.7759 19.333 16.7759C19.6214 16.7759 19.849 16.534 19.8643 16.247L20.0919 12.3628L19.8643 1.64747C19.849 1.45099 19.7579 1.28485 19.6062 1.19412Z" fill="url(#paint9_linear_207_66)"/>
<path d="M0.440121 14.6146C0.515988 14.6146 0.576621 14.5541 0.591855 14.4635L0.925641 12.3475L0.591855 10.2014C0.576621 10.1108 0.515988 10.0503 0.440121 10.0503C0.399903 10.0504 0.361356 10.0663 0.332918 10.0946C0.304479 10.123 0.288467 10.1614 0.288387 10.2014L0 12.3475L0.288387 14.4635C0.288387 14.5541 0.364254 14.6146 0.440121 14.6146Z" fill="url(#paint10_linear_207_66)"/>
<path d="M1.88175 15.8993C1.95762 15.8993 2.03349 15.8389 2.04857 15.7483L2.48884 12.3477L2.04857 8.87173C2.03334 8.781 1.9727 8.72046 1.88175 8.72046C1.80589 8.72046 1.73002 8.781 1.71479 8.87173L1.33545 12.3477L1.71479 15.7483C1.73002 15.8389 1.79065 15.8993 1.88175 15.8993Z" fill="url(#paint11_linear_207_66)"/>
<path d="M3.39925 16.519C3.50543 16.519 3.5813 16.4434 3.59653 16.3225L4.00634 12.3476L3.59653 8.22163C3.5813 8.11588 3.50543 8.02515 3.39925 8.02515C3.29306 8.02515 3.2172 8.1007 3.20196 8.22163L2.83786 12.3476L3.20196 16.3225C3.2172 16.4282 3.29306 16.519 3.39925 16.519Z" fill="url(#paint12_linear_207_66)"/>
<path d="M34.068 7.28458C33.4155 7.28458 32.7934 7.42068 32.2167 7.64735C31.8374 3.37025 28.2256 0 23.8249 0C22.7811 0.000788665 21.7467 0.195547 20.7747 0.574276C20.4106 0.710372 20.3195 0.86149 20.3195 1.13353V16.2318C20.3195 16.519 20.5471 16.7456 20.8354 16.7758H34.0833C36.7237 16.7758 38.8635 14.6751 38.8635 12.0454C38.8483 9.4157 36.7086 7.28458 34.068 7.28458Z" fill="url(#paint13_linear_207_66)"/>
<path d="M3.80891 19.6474C3.24752 19.5115 3.09579 19.451 3.09579 19.2243C3.09579 19.0732 3.21721 18.9069 3.59654 18.9069C3.91524 18.9069 4.17316 19.043 4.40092 19.2695L4.91675 18.7709C4.58281 18.4233 4.17316 18.2117 3.62686 18.2117C2.92882 18.2117 2.36728 18.6046 2.36728 19.2394C2.36728 19.9346 2.82264 20.1462 3.47512 20.2822C4.14285 20.4334 4.26426 20.5391 4.26426 20.7658C4.26426 21.0378 4.06698 21.1436 3.64209 21.1436C3.30815 21.1436 2.98945 21.0228 2.73153 20.7356L2.21555 21.189C2.4887 21.5819 3.00469 21.8238 3.58131 21.8238C4.5525 21.8238 4.9623 21.3704 4.9623 20.7054C4.99262 19.9648 4.3703 19.7684 3.80891 19.6474ZM7.07165 18.2268C6.10046 18.2268 5.53892 18.9673 5.53892 20.0404C5.53892 21.1134 6.11555 21.854 7.0715 21.854C8.02761 21.854 8.60423 21.1135 8.60423 20.0404C8.60423 18.9674 8.02761 18.2268 7.07165 18.2268ZM7.07165 21.1437C6.49488 21.1437 6.26728 20.66 6.26728 20.0252C6.26728 19.3906 6.51012 18.907 7.07165 18.907C7.64828 18.907 7.87603 19.3906 7.87603 20.0252C7.87603 20.66 7.63304 21.1437 7.07165 21.1437ZM11.4572 20.2521C11.4572 20.8112 11.184 21.1588 10.7288 21.1588C10.2736 21.1588 10.0005 20.7961 10.0005 20.2369V18.2721H9.28719V20.2521C9.28719 21.2797 9.86381 21.854 10.7136 21.854C11.6089 21.854 12.1401 21.2647 12.1401 20.2521V18.2872H11.4269V20.2521H11.4572ZM15.2054 19.7684C15.2054 19.9648 15.2207 20.4032 15.2207 20.5391C15.175 20.4485 15.0537 20.2671 14.9778 20.1462L13.7183 18.2872H13.0355V21.8087H13.7335V20.2521C13.7335 20.0556 13.7183 19.6172 13.7183 19.4813C13.764 19.5719 13.8852 19.7532 13.9611 19.8743L15.251 21.7936H15.8884V18.2721H15.1902V19.7684H15.2054ZM17.9217 18.2722H16.814V21.7936H17.8611C18.7717 21.7936 19.667 21.2647 19.667 20.0404C19.667 18.7407 18.9234 18.2722 17.9217 18.2722ZM17.8611 21.1134H17.5121V18.9674H17.8914C18.635 18.9674 18.9537 19.33 18.9537 20.0404C18.9537 20.6752 18.6047 21.1134 17.8611 21.1134ZM21.8522 18.922C22.1709 18.922 22.368 19.058 22.5047 19.2998L23.1572 18.9976C22.9296 18.5442 22.535 18.2117 21.8673 18.2117C20.9416 18.2117 20.3042 18.9522 20.3042 20.0252C20.3042 21.1286 20.9264 21.8389 21.852 21.8389C22.4894 21.8389 22.9143 21.5367 23.1572 21.0378L22.5653 20.6904C22.3833 21.0076 22.186 21.1437 21.8673 21.1437C21.3362 21.1437 21.0327 20.66 21.0327 20.0252C21.0327 19.3754 21.3362 18.922 21.8522 18.922ZM24.4774 18.2722H23.7643V21.7936H25.8887V21.0984H24.4774V18.2722ZM27.7552 18.2267C26.784 18.2267 26.2226 18.9674 26.2226 20.0404C26.2226 21.1134 26.7993 21.854 27.7552 21.854C28.7264 21.854 29.2879 21.1135 29.2879 20.0404C29.2879 18.9674 28.7264 18.2268 27.7554 18.2268L27.7552 18.2267ZM27.7552 21.1437C27.1786 21.1437 26.9508 20.66 26.9508 20.0252C26.9508 19.3906 27.1938 18.907 27.7552 18.907C28.332 18.907 28.5596 19.3906 28.5596 20.0252C28.5596 20.66 28.332 21.1437 27.7552 21.1437ZM32.1409 20.2521C32.1409 20.8112 31.8677 21.1588 31.4125 21.1588C30.9572 21.1588 30.684 20.7961 30.684 20.2369V18.2721H29.9709V20.2521C29.9709 21.2797 30.5475 21.854 31.3973 21.854C32.2926 21.854 32.8237 21.2647 32.8237 20.2521V18.2872H32.1106V20.2521H32.1409ZM34.8419 18.2721H33.7342V21.7936H34.7813C35.6919 21.7936 36.5872 21.2647 36.5872 20.0404C36.5872 18.7407 35.8436 18.2722 34.8421 18.2722L34.8419 18.2721ZM34.7813 21.1134H34.4475V18.9674H34.8269C35.5703 18.9674 35.8739 19.33 35.8739 20.0404C35.8739 20.6752 35.525 21.1134 34.7813 21.1134Z" fill="#F04923"/>
<defs>
<linearGradient id="paint0_linear_207_66" x1="16.0742" y1="7.78189e-06" x2="16.0742" y2="16.8021" gradientUnits="userSpaceOnUse">
<stop stop-color="#F6871F"/>
<stop offset="0.2393" stop-color="#F57E20"/>
<stop offset="0.6262" stop-color="#F36621"/>
<stop offset="1" stop-color="#F04923"/>
</linearGradient>
<linearGradient id="paint1_linear_207_66" x1="14.4494" y1="3.48091e-05" x2="14.4494" y2="16.8022" gradientUnits="userSpaceOnUse">
<stop stop-color="#F6871F"/>
<stop offset="0.2393" stop-color="#F57E20"/>
<stop offset="0.6262" stop-color="#F36621"/>
<stop offset="1" stop-color="#F04923"/>
</linearGradient>
<linearGradient id="paint2_linear_207_66" x1="11.2375" y1="4.87076e-05" x2="11.2375" y2="16.8019" gradientUnits="userSpaceOnUse">
<stop stop-color="#F6871F"/>
<stop offset="0.2393" stop-color="#F57E20"/>
<stop offset="0.6262" stop-color="#F36621"/>
<stop offset="1" stop-color="#F04923"/>
</linearGradient>
<linearGradient id="paint3_linear_207_66" x1="12.8373" y1="6.93093e-05" x2="12.8373" y2="16.8021" gradientUnits="userSpaceOnUse">
<stop stop-color="#F6871F"/>
<stop offset="0.2393" stop-color="#F57E20"/>
<stop offset="0.6262" stop-color="#F36621"/>
<stop offset="1" stop-color="#F04923"/>
</linearGradient>
<linearGradient id="paint4_linear_207_66" x1="4.96412" y1="-2.39131e-05" x2="4.96412" y2="16.8021" gradientUnits="userSpaceOnUse">
<stop stop-color="#F6871F"/>
<stop offset="0.2393" stop-color="#F57E20"/>
<stop offset="0.6262" stop-color="#F36621"/>
<stop offset="1" stop-color="#F04923"/>
</linearGradient>
<linearGradient id="paint5_linear_207_66" x1="17.7115" y1="-8.0919e-06" x2="17.7115" y2="16.8023" gradientUnits="userSpaceOnUse">
<stop stop-color="#F6871F"/>
<stop offset="0.2393" stop-color="#F57E20"/>
<stop offset="0.6262" stop-color="#F36621"/>
<stop offset="1" stop-color="#F04923"/>
</linearGradient>
<linearGradient id="paint6_linear_207_66" x1="6.51355" y1="-2.73592e-05" x2="6.51355" y2="16.802" gradientUnits="userSpaceOnUse">
<stop stop-color="#F6871F"/>
<stop offset="0.2393" stop-color="#F57E20"/>
<stop offset="0.6262" stop-color="#F36621"/>
<stop offset="1" stop-color="#F04923"/>
</linearGradient>
<linearGradient id="paint7_linear_207_66" x1="8.07573" y1="-1.4475e-05" x2="8.07573" y2="16.802" gradientUnits="userSpaceOnUse">
<stop stop-color="#F6871F"/>
<stop offset="0.2393" stop-color="#F57E20"/>
<stop offset="0.6262" stop-color="#F36621"/>
<stop offset="1" stop-color="#F04923"/>
</linearGradient>
<linearGradient id="paint8_linear_207_66" x1="9.62631" y1="-0.000194744" x2="9.62631" y2="16.802" gradientUnits="userSpaceOnUse">
<stop stop-color="#F6871F"/>
<stop offset="0.2393" stop-color="#F57E20"/>
<stop offset="0.6262" stop-color="#F36621"/>
<stop offset="1" stop-color="#F04923"/>
</linearGradient>
<linearGradient id="paint9_linear_207_66" x1="19.3412" y1="-5.44312e-06" x2="19.3412" y2="16.8022" gradientUnits="userSpaceOnUse">
<stop stop-color="#F6871F"/>
<stop offset="0.2393" stop-color="#F57E20"/>
<stop offset="0.6262" stop-color="#F36621"/>
<stop offset="1" stop-color="#F04923"/>
</linearGradient>
<linearGradient id="paint10_linear_207_66" x1="0.465829" y1="-0.000288465" x2="0.465829" y2="16.8022" gradientUnits="userSpaceOnUse">
<stop stop-color="#F6871F"/>
<stop offset="0.2393" stop-color="#F57E20"/>
<stop offset="0.6262" stop-color="#F36621"/>
<stop offset="1" stop-color="#F04923"/>
</linearGradient>
<linearGradient id="paint11_linear_207_66" x1="1.90245" y1="-0.00013352" x2="1.90245" y2="16.8023" gradientUnits="userSpaceOnUse">
<stop stop-color="#F6871F"/>
<stop offset="0.2393" stop-color="#F57E20"/>
<stop offset="0.6262" stop-color="#F36621"/>
<stop offset="1" stop-color="#F04923"/>
</linearGradient>
<linearGradient id="paint12_linear_207_66" x1="3.42703" y1="-0.000154601" x2="3.42703" y2="16.8022" gradientUnits="userSpaceOnUse">
<stop stop-color="#F6871F"/>
<stop offset="0.2393" stop-color="#F57E20"/>
<stop offset="0.6262" stop-color="#F36621"/>
<stop offset="1" stop-color="#F04923"/>
</linearGradient>
<linearGradient id="paint13_linear_207_66" x1="29.5787" y1="0" x2="29.5787" y2="16.7787" gradientUnits="userSpaceOnUse">
<stop stop-color="#F6871F"/>
<stop offset="0.2402" stop-color="#F57E20"/>
<stop offset="0.6306" stop-color="#F36621"/>
<stop offset="1" stop-color="#F04923"/>
</linearGradient>
</defs>
</svg>
