<svg width="23" height="22" viewBox="0 0 23 22" fill="none" xmlns="http://www.w3.org/2000/svg">
<path d="M11.5 0C8.4507 0 5.52359 1.15964 3.36914 3.2218C1.21246 5.28477 0.000597407 8.08256 0 11C0 13.9162 1.21289 16.716 3.36914 18.7782C5.52359 20.8404 8.4507 22 11.5 22C14.5493 22 17.4764 20.8404 19.6309 18.7782C21.7871 16.716 23 13.9162 23 11C23 8.0838 21.7871 5.28395 19.6309 3.2218C17.4764 1.15964 14.5493 0 11.5 0Z" fill="url(#paint0_linear_207_43)"/>
<path d="M5.20556 10.8838C8.55853 9.48679 10.7938 8.56571 11.9115 8.12073C15.1063 6.85006 15.7694 6.62937 16.2024 6.62189C16.2977 6.62043 16.5097 6.64295 16.6481 6.74994C16.7631 6.84017 16.7954 6.9622 16.8116 7.04788C16.8259 7.13348 16.8457 7.32856 16.8295 7.48084C16.657 9.22021 15.9077 13.4411 15.5268 15.3893C15.3669 16.2136 15.0488 16.49 14.7416 16.517C14.0731 16.5758 13.5664 16.0949 12.9195 15.6894C11.9079 15.0547 11.3365 14.6597 10.3536 14.0404C9.21798 13.3248 9.9547 12.9313 10.6016 12.2885C10.7705 12.1203 13.7138 9.56018 13.7695 9.32798C13.7767 9.29893 13.7838 9.19065 13.7156 9.13359C13.6491 9.07635 13.5502 9.09595 13.4784 9.11142C13.3759 9.13341 11.7606 10.1557 8.62681 12.1782C8.1686 12.4797 7.75353 12.6266 7.37978 12.6189C6.97009 12.6104 6.17946 12.3968 5.59189 12.2143C4.87314 11.9903 4.29993 11.8719 4.35024 11.4915C4.3754 11.2935 4.6611 11.0909 5.20556 10.8838Z" fill="white"/>
<defs>
<linearGradient id="paint0_linear_207_43" x1="11.5" y1="0" x2="11.5" y2="22" gradientUnits="userSpaceOnUse">
<stop stop-color="#2AABEE"/>
<stop offset="1" stop-color="#229ED9"/>
</linearGradient>
</defs>
</svg>
