<svg width="22" height="22" viewBox="0 0 22 22" fill="none" xmlns="http://www.w3.org/2000/svg">
<path d="M0.469467 10.8684C0.468951 12.7168 0.955701 14.5216 1.88125 16.1125L0.380951 21.5478L5.98683 20.0893C7.53734 20.9269 9.27457 21.3657 11.04 21.3658H11.0446C16.8724 21.3658 21.6165 16.6603 21.6189 10.8766C21.6201 8.07401 20.5211 5.43862 18.5244 3.45589C16.5281 1.47333 13.8731 0.380918 11.0442 0.379639C5.21562 0.379639 0.471959 5.08491 0.469553 10.8684" fill="url(#paint0_linear_207_39)"/>
<path d="M8.30828 6.32274C8.10323 5.87054 7.88744 5.86142 7.69245 5.85349C7.53278 5.84666 7.35024 5.84718 7.16788 5.84718C6.98535 5.84718 6.68878 5.91531 6.4381 6.1869C6.18717 6.45874 5.48007 7.11567 5.48007 8.45179C5.48007 9.78799 6.46088 11.0793 6.5976 11.2606C6.7345 11.4417 8.49106 14.2713 11.273 15.3599C13.5851 16.2645 14.0556 16.0846 14.5574 16.0392C15.0593 15.994 16.1768 15.3825 16.4048 14.7483C16.633 14.1142 16.633 13.5707 16.5645 13.4571C16.4961 13.344 16.3136 13.276 16.0399 13.1403C15.7661 13.0044 14.4205 12.3474 14.1696 12.2568C13.9187 12.1662 13.7363 12.121 13.5537 12.3929C13.3712 12.6644 12.8471 13.276 12.6873 13.4571C12.5277 13.6387 12.368 13.6613 12.0943 13.5254C11.8205 13.3892 10.939 13.1027 9.89322 12.1776C9.07956 11.4578 8.53025 10.5688 8.37058 10.2969C8.21091 10.0254 8.35348 9.87821 8.49072 9.74288C8.6137 9.6212 8.76452 9.42576 8.9015 9.26724C9.03797 9.10863 9.08352 8.99548 9.17478 8.81436C9.26613 8.63308 9.22042 8.47447 9.1521 8.33863C9.08352 8.2028 8.55165 6.85969 8.30828 6.32274Z" fill="white"/>
<defs>
<linearGradient id="paint0_linear_207_39" x1="10.9999" y1="21.5478" x2="10.9999" y2="0.379639" gradientUnits="userSpaceOnUse">
<stop stop-color="#1FAF38"/>
<stop offset="1" stop-color="#60D669"/>
</linearGradient>
</defs>
</svg>
