<svg width="296" height="296" viewBox="0 0 296 296" fill="none" xmlns="http://www.w3.org/2000/svg">
<path d="M147.667 17C121.823 17 96.5602 24.6635 75.0722 39.0213C53.5842 53.3791 36.8363 73.7865 26.9465 97.6627C17.0566 121.539 14.469 147.812 19.5108 173.158C24.5526 198.505 36.9974 221.788 55.2714 240.062C73.5455 258.336 96.8281 270.781 122.175 275.823C147.522 280.864 173.794 278.277 197.671 268.387C221.547 258.497 241.954 241.749 256.312 220.261C270.67 198.773 278.333 173.51 278.333 147.667C278.333 113.012 264.567 79.7761 240.062 55.2714C215.557 30.7666 182.322 17 147.667 17V17ZM213.49 148.32H226.067C225.895 169.007 217.561 188.789 202.879 203.364C188.197 217.939 168.355 226.128 147.667 226.148H146.278V213.653H147.667C165.033 213.632 181.689 206.758 194.015 194.524C206.341 182.29 213.339 165.686 213.49 148.32V148.32ZM48.6867 148.32H35.6201V147.667C35.6393 118.203 47.2629 89.9329 67.9741 68.9772C88.6853 48.0214 116.817 36.0667 146.278 35.7017V48.7683C120.289 49.154 95.4932 59.7385 77.2368 78.2393C58.9805 96.7401 48.7267 121.675 48.6867 147.667V148.32ZM81.7617 148.32H69.1851V147.667C69.2032 127.105 77.2905 107.371 91.7074 92.7094C106.124 78.0481 125.719 69.6304 146.278 69.2667V81.8433C129.055 82.2062 112.659 89.2985 100.6 101.601C88.5414 113.904 81.7793 130.44 81.7617 147.667V148.32ZM117.042 147.667C117.042 141.61 118.838 135.689 122.203 130.652C125.568 125.616 130.351 121.691 135.947 119.373C141.543 117.055 147.701 116.448 153.641 117.63C159.582 118.812 165.039 121.729 169.322 126.012C173.605 130.295 176.522 135.751 177.703 141.692C178.885 147.633 178.278 153.79 175.961 159.386C173.643 164.982 169.717 169.765 164.681 173.13C159.645 176.496 153.724 178.292 147.667 178.292C139.544 178.292 131.755 175.065 126.012 169.322C120.268 163.579 117.042 155.789 117.042 147.667V147.667ZM147.667 259.632H146.278V246.32H147.667C173.728 246.279 198.724 235.969 217.236 217.624C235.748 199.28 246.286 174.38 246.565 148.32H259.632C259.416 177.888 247.53 206.175 226.561 227.022C205.591 247.869 177.236 259.589 147.667 259.632Z" fill="#3E1515"/>
</svg>
