<svg width="22" height="22" viewBox="0 0 22 22" fill="none" xmlns="http://www.w3.org/2000/svg">
<path d="M11 7C11.7911 7 12.5645 7.2346 13.2223 7.67412C13.8801 8.11365 14.3928 8.73836 14.6955 9.46927C14.9983 10.2002 15.0775 11.0044 14.9231 11.7804C14.7688 12.5563 14.3878 13.269 13.8284 13.8284C13.269 14.3878 12.5563 14.7688 11.7804 14.9231C11.0044 15.0775 10.2002 14.9983 9.46927 14.6955C8.73836 14.3928 8.11365 13.8801 7.67412 13.2223C7.2346 12.5645 7 11.7911 7 11C7 9.93913 7.42143 8.92172 8.17157 8.17157C8.92172 7.42143 9.93913 7 11 7Z" fill="#3E1515"/>
<path d="M11 19C9.41775 19 7.87103 18.5308 6.55544 17.6518C5.23985 16.7727 4.21447 15.5233 3.60897 14.0615C3.00347 12.5997 2.84504 10.9911 3.15372 9.43928C3.4624 7.88743 4.22433 6.46197 5.34315 5.34315C6.46197 4.22433 7.88743 3.4624 9.43928 3.15372C10.9911 2.84504 12.5997 3.00347 14.0615 3.60897C15.5233 4.21447 16.7727 5.23985 17.6518 6.55544C18.5308 7.87103 19 9.41775 19 11C19 13.1217 18.1571 15.1566 16.6569 16.6569C15.1566 18.1571 13.1217 19 11 19ZM11 4C9.61553 4 8.26215 4.41055 7.11101 5.17972C5.95987 5.94889 5.06266 7.04214 4.53285 8.32122C4.00303 9.6003 3.86441 11.0078 4.13451 12.3656C4.4046 13.7235 5.07129 14.9708 6.05026 15.9497C7.02922 16.9287 8.2765 17.5954 9.63437 17.8655C10.9922 18.1356 12.3997 17.997 13.6788 17.4672C14.9579 16.9373 16.0511 16.0401 16.8203 14.889C17.5895 13.7378 18 12.3845 18 11C18 9.14349 17.2625 7.36301 15.9497 6.05026C14.637 4.7375 12.8565 4 11 4Z" fill="#3E1515"/>
</svg>
