<svg width="67" height="67" viewBox="0 0 67 67" fill="none" xmlns="http://www.w3.org/2000/svg">
<path d="M37.0175 9.2125C37.4544 8.89995 37.9657 8.70749 38.5002 8.65433C39.0348 8.60116 39.574 8.68917 40.0639 8.90955C40.5538 9.12993 40.9773 9.47497 41.2922 9.91023C41.6071 10.3455 41.8022 10.8557 41.8582 11.39L41.875 11.7083V55.2918C41.8752 55.829 41.7344 56.3568 41.4668 56.8226C41.1991 57.2885 40.814 57.6759 40.3497 57.9463C39.8855 58.2167 39.3585 58.3606 38.8213 58.3636C38.2841 58.3666 37.7555 58.2286 37.2883 57.9634L37.0203 57.7903L18.6483 44.6667H11.1666C9.75804 44.6671 8.40131 44.1351 7.36845 43.1773C6.33559 42.2195 5.70292 40.9067 5.59727 39.5021L5.58331 39.0833V27.9167C5.58287 26.5081 6.11486 25.1513 7.07266 24.1185C8.03045 23.0856 9.34325 22.4529 10.7479 22.3473L11.1666 22.3333H18.6483L37.0175 9.2125ZM54.9037 18.9359C56.9547 20.7671 58.5953 23.0114 59.7178 25.5214C60.8403 28.0314 61.4192 30.7504 61.4166 33.5C61.4192 36.2496 60.8403 38.9686 59.7178 41.4786C58.5953 43.9887 56.9547 46.2329 54.9037 48.0641C54.6312 48.3127 54.3122 48.5047 53.9651 48.6293C53.618 48.7538 53.2496 48.8083 52.8813 48.7897C52.513 48.7711 52.152 48.6796 51.8192 48.5207C51.4865 48.3618 51.1885 48.1385 50.9425 47.8637C50.6965 47.589 50.5074 47.2682 50.3861 46.9199C50.2647 46.5717 50.2136 46.2028 50.2357 45.8347C50.2577 45.4666 50.3525 45.1065 50.5145 44.7752C50.6765 44.4439 50.9026 44.148 51.1796 43.9045C52.6457 42.597 53.8184 40.9938 54.6205 39.2006C55.4226 37.4073 55.8359 35.4645 55.8333 33.5C55.8333 29.3683 54.0411 25.6554 51.1796 23.0955C50.9026 22.852 50.6765 22.5561 50.5145 22.2248C50.3525 21.8935 50.2577 21.5334 50.2357 21.1653C50.2136 20.7972 50.2647 20.4283 50.3861 20.0801C50.5074 19.7318 50.6965 19.411 50.9425 19.1363C51.1885 18.8615 51.4865 18.6382 51.8192 18.4793C52.152 18.3204 52.513 18.2289 52.8813 18.2103C53.2496 18.1917 53.618 18.2462 53.9651 18.3707C54.3122 18.4953 54.6312 18.6874 54.9037 18.9359V18.9359ZM49.3204 25.178C50.4918 26.2242 51.4289 27.5061 52.0703 28.9398C52.7116 30.3735 53.0426 31.9266 53.0416 33.4972C53.0436 35.0688 52.713 36.623 52.0717 38.0577C51.4303 39.4925 50.4927 40.7753 49.3204 41.822C48.7909 42.2921 48.1027 42.5436 47.3948 42.5254C46.687 42.5072 46.0126 42.2207 45.508 41.724C45.0034 41.2272 44.7065 40.5573 44.6773 39.8499C44.648 39.1424 44.8887 38.4503 45.3506 37.9136L45.5963 37.6624C46.7409 36.635 47.4583 35.1527 47.4583 33.5C47.4616 32.0704 46.9137 30.6946 45.9285 29.6587L45.5963 29.3376C45.3192 29.0942 45.0932 28.7983 44.9312 28.467C44.7692 28.1357 44.6744 27.7756 44.6524 27.4075C44.6303 27.0393 44.6814 26.6705 44.8027 26.3222C44.924 25.974 45.1132 25.6532 45.3591 25.3784C45.6051 25.1037 45.9031 24.8804 46.2359 24.7215C46.5687 24.5625 46.9297 24.4711 47.298 24.4525C47.6663 24.4338 48.0346 24.4884 48.3818 24.6129C48.7289 24.7374 49.0479 24.9295 49.3204 25.178V25.178Z" fill="#3E1515"/>
</svg>
