<svg width="67" height="67" viewBox="0 0 67 67" fill="none" xmlns="http://www.w3.org/2000/svg">
<path d="M12.8305 22.3333L41.875 51.3778V55.2918C41.8752 55.8562 41.7197 56.4099 41.4258 56.8918C41.1318 57.3737 40.7107 57.7653 40.2088 58.0235C39.7068 58.2817 39.1433 58.3965 38.5803 58.3554C38.0174 58.3143 37.4766 58.1187 37.0175 57.7903L18.6483 44.6667H11.1666C9.68585 44.6667 8.26571 44.0784 7.21863 43.0313C6.17156 41.9843 5.58331 40.5641 5.58331 39.0833V27.9167C5.58331 26.4359 6.17156 25.0157 7.21863 23.9687C8.26571 22.9216 9.68585 22.3333 11.1666 22.3333H12.8305ZM41.875 11.7082V37.9276L44.9821 41.0347C44.7225 40.5373 44.6188 39.9732 44.6845 39.4159C44.7502 38.8587 44.9824 38.3342 45.3506 37.9108L45.5963 37.6624C46.7409 36.635 47.4583 35.1527 47.4583 33.5C47.4616 32.0704 46.9137 30.6946 45.9285 29.6587L45.5963 29.3376C45.0526 28.8417 44.7267 28.1511 44.6895 27.4162C44.6523 26.6812 44.9068 25.9613 45.3977 25.413C45.8886 24.8647 46.5761 24.5324 47.3107 24.4884C48.0453 24.4444 48.7675 24.6923 49.3204 25.178C50.492 26.2246 51.4293 27.507 52.0706 28.9412C52.7119 30.3754 53.0428 31.929 53.0416 33.5C53.0434 35.0711 52.7127 36.6248 52.0713 38.0591C51.43 39.4934 50.4925 40.7757 49.3204 41.822C48.8973 42.2012 48.3687 42.4423 47.805 42.5131C47.2413 42.584 46.6695 42.4811 46.1658 42.2184L50.2695 46.3221C50.215 45.8756 50.2693 45.4226 50.4278 45.0016C50.5862 44.5806 50.8442 44.2043 51.1796 43.9045C52.6457 42.597 53.8184 40.9938 54.6205 39.2006C55.4226 37.4073 55.8359 35.4645 55.8333 33.5C55.8333 29.3683 54.0411 25.6554 51.1796 23.0955C50.9026 22.852 50.6765 22.5561 50.5145 22.2248C50.3525 21.8935 50.2577 21.5334 50.2357 21.1653C50.2136 20.7972 50.2647 20.4283 50.3861 20.0801C50.5074 19.7318 50.6965 19.411 50.9425 19.1363C51.1885 18.8615 51.4865 18.6382 51.8192 18.4793C52.152 18.3204 52.513 18.2289 52.8813 18.2103C53.2496 18.1917 53.618 18.2462 53.9651 18.3707C54.3122 18.4953 54.6312 18.6873 54.9037 18.9359C56.9547 20.7671 58.5953 23.0114 59.7178 25.5214C60.8403 28.0314 61.4192 30.7504 61.4166 33.5C61.4192 36.2496 60.8403 38.9686 59.7178 41.4786C58.5953 43.9886 56.9547 46.2329 54.9037 48.0641C54.6077 48.3299 54.2582 48.5292 53.8788 48.6486C53.4993 48.768 53.0987 48.8048 52.7039 48.7565L57.1873 53.2399C57.6958 53.7664 57.9772 54.4716 57.9708 55.2035C57.9645 55.9355 57.6709 56.6357 57.1533 57.1533C56.6357 57.6709 55.9355 57.9645 55.2035 57.9708C54.4716 57.9772 53.7664 57.6958 53.2399 57.1873L9.81269 13.7629C9.54606 13.5054 9.33338 13.1973 9.18707 12.8568C9.04076 12.5162 8.96375 12.1498 8.96053 11.7792C8.95731 11.4085 9.02794 11.0409 9.16831 10.6978C9.30868 10.3547 9.51597 10.043 9.77809 9.7809C10.0402 9.51878 10.3519 9.31149 10.695 9.17112C11.0381 9.03076 11.4057 8.96012 11.7764 8.96334C12.147 8.96656 12.5133 9.04357 12.8539 9.18988C13.1945 9.33619 13.5026 9.54887 13.7601 9.8155L23.101 19.1508L37.0203 9.20692C37.4796 8.87913 38.0203 8.68422 38.5831 8.64361C39.1459 8.60299 39.709 8.71824 40.2106 8.97668C40.7122 9.23513 41.1329 9.62679 41.4265 10.1087C41.7202 10.5905 41.8753 11.144 41.875 11.7082V11.7082Z" fill="#3E1515"/>
</svg>
