<svg width="78" height="79" viewBox="0 0 78 79" fill="none" xmlns="http://www.w3.org/2000/svg">
<path d="M19.1325 78.1667C19.1345 73.5583 17.558 69.0919 14.6718 65.5283C11.7855 61.9647 7.768 59.5245 3.30375 58.6233H3V38.875C3.01788 29.3541 6.76647 20.2293 13.423 13.5034C20.0796 6.77748 29.1002 2.99998 38.505 3V3C47.9098 2.99998 56.9305 6.77748 63.587 13.5034C70.2435 20.2293 73.9921 29.3541 74.01 38.875V58.4867H73.7063C69.242 59.3878 65.2245 61.828 62.3382 65.3916C59.452 68.9552 57.8755 73.4217 57.8775 78.03V78.03" stroke="black" stroke-opacity="0.85" stroke-width="6" stroke-miterlimit="10"/>
<path d="M38.505 68.3608V78.1667" stroke="black" stroke-opacity="0.85" stroke-width="6" stroke-miterlimit="10"/>
<path d="M28.8188 68.3608V78.1667" stroke="black" stroke-opacity="0.85" stroke-width="6" stroke-miterlimit="10"/>
<path d="M48.1913 68.3608V78.1667" stroke="black" stroke-opacity="0.85" stroke-width="6" stroke-miterlimit="10"/>
<path d="M23.9925 48.7492C28.4474 48.7492 32.0587 45.0932 32.0587 40.5833C32.0587 36.0735 28.4474 32.4175 23.9925 32.4175C19.5376 32.4175 15.9262 36.0735 15.9262 40.5833C15.9262 45.0932 19.5376 48.7492 23.9925 48.7492Z" stroke="black" stroke-opacity="0.85" stroke-width="6" stroke-miterlimit="10"/>
<path d="M53.0175 48.7492C57.4724 48.7492 61.0838 45.0932 61.0838 40.5833C61.0838 36.0735 57.4724 32.4175 53.0175 32.4175C48.5626 32.4175 44.9512 36.0735 44.9512 40.5833C44.9512 45.0932 48.5626 48.7492 53.0175 48.7492Z" stroke="black" stroke-opacity="0.85" stroke-width="6" stroke-miterlimit="10"/>
<path d="M35.265 58.555H41.745" stroke="black" stroke-opacity="0.85" stroke-width="6" stroke-miterlimit="10"/>
</svg>
